<svg xmlns="http://www.w3.org/2000/svg" xmlns:xlink="http://www.w3.org/1999/xlink" width="74.001" height="74" viewBox="0 0 74.001 74">
  <defs>
    <filter id="Subtraction_2" x="0" y="0" width="74" height="40" filterUnits="userSpaceOnUse">
      <feOffset dx="2" dy="3" input="SourceAlpha"/>
      <feGaussianBlur stdDeviation="1" result="blur"/>
      <feFlood flood-opacity="0.161"/>
      <feComposite operator="in" in2="blur"/>
      <feComposite in="SourceGraphic"/>
    </filter>
    <filter id="Subtraction_1" x="0" y="34" width="74" height="40" filterUnits="userSpaceOnUse">
      <feOffset dx="2" dy="3" input="SourceAlpha"/>
      <feGaussianBlur stdDeviation="1" result="blur-2"/>
      <feFlood flood-opacity="0.161"/>
      <feComposite operator="in" in2="blur-2"/>
      <feComposite in="SourceGraphic"/>
    </filter>
  </defs>
  <g id="Group_581" data-name="Group 581" transform="translate(-2800 -1011)">
    <g id="Group_580" data-name="Group 580" transform="translate(-8 37)">
      <g transform="matrix(1, 0, 0, 1, 2808, 974)" filter="url(#Subtraction_2)">
        <g id="Subtraction_2-2" data-name="Subtraction 2" transform="translate(-21)" fill="#eb7ac1">
          <path d="M 89.49639129638672 33.50020217895508 L 22.50321769714355 33.50020217895508 C 22.56608009338379 29.15404510498047 23.44967651367188 24.93814659118652 25.13203239440918 20.96065139770508 C 26.81932258605957 16.97151184082031 29.23490142822266 13.38880062103271 32.31165313720703 10.31205081939697 C 35.38840103149414 7.23530101776123 38.97111129760742 4.819721221923828 42.96025085449219 3.132431030273438 C 47.09000015258789 1.38568103313446 51.47714233398438 0.500001072883606 55.99980163574219 0.500001072883606 C 60.5224609375 0.500001072883606 64.90959930419922 1.38568103313446 69.03935241699219 3.132431030273438 C 73.02848815917969 4.819721221923828 76.61119842529297 7.23530101776123 79.68795013427734 10.31205081939697 C 82.76470184326172 13.38880062103271 85.18028259277344 16.97151184082031 86.86756896972656 20.96065139770508 C 88.5499267578125 24.93816757202148 89.43352508544922 29.15415000915527 89.49639129638672 33.50020217895508 Z" stroke="none"/>
          <path d="M 88.98529815673828 33.00020217895508 C 88.86436462402344 28.8982982635498 87.99855041503906 24.91810417175293 86.40707397460938 21.15543174743652 C 84.7449951171875 17.22588157653809 82.36539459228516 13.69660091400146 79.33438873291016 10.66561126708984 C 76.30339813232422 7.634611129760742 72.77412414550781 5.255011081695557 68.84457397460938 3.592931032180786 C 64.77679443359375 1.872391104698181 60.45518112182617 1.000001072883606 55.99980163574219 1.000001072883606 C 51.5444221496582 1.000001072883606 47.22281265258789 1.872391104698181 43.15503311157227 3.592931032180786 C 39.22548294067383 5.255011081695557 35.69620132446289 7.634611129760742 32.66521072387695 10.66561126708984 C 29.63421249389648 13.69660091400146 27.25461196899414 17.22588157653809 25.59253120422363 21.15543174743652 C 24.00105285644531 24.91806793212891 23.13524436950684 28.89820861816406 23.01430892944336 33.00020217895508 L 88.98529815673828 33.00020217895508 M 90 34.00020217895508 L 21.99960136413574 34.00020217895508 C 21.99960136413574 29.40912055969238 22.89890098571777 24.95679092407227 24.67153167724609 20.76587104797363 C 26.3840217590332 16.7171516418457 28.8355712890625 13.08102130889893 31.95810127258301 9.958500862121582 C 35.08061981201172 6.835970878601074 38.71675109863281 4.384420871734619 42.76547241210938 2.671931028366089 C 46.95718002319336 0.8989710807800293 51.40986251831055 1.089477564164554e-06 55.99980163574219 1.089477564164554e-06 C 60.58974075317383 1.089477564164554e-06 65.04241943359375 0.8989710807800293 69.234130859375 2.671931028366089 C 73.28285217285156 4.384420871734619 76.91898345947266 6.835970878601074 80.04150390625 9.958500862121582 C 83.16403198242188 13.08102130889893 85.61558532714844 16.7171516418457 87.32807159423828 20.76587104797363 C 89.10092163085938 24.95733070373535 89.99989318847656 29.40967178344727 90 33.99920272827148 L 90 34.00020217895508 Z" stroke="none" fill="#eb7ac1"/>
        </g>
      </g>
      <g transform="matrix(1, 0, 0, 1, 2808, 974)" filter="url(#Subtraction_1)">
        <g id="Subtraction_1-2" data-name="Subtraction 1" transform="translate(-45 -19)" fill="#eea5d3">
          <path d="M 80.00009918212891 86.50031280517578 C 75.47742462158203 86.50031280517578 71.09028625488281 85.61463165283203 66.96054840087891 83.86787414550781 C 62.9714469909668 82.18061065673828 59.38874816894531 79.76502990722656 56.31195831298828 76.68826293945312 C 53.23517608642578 73.61148071289062 50.81960678100586 70.02877044677734 49.13234710693359 66.03966522216797 C 47.44998168945312 62.06216812133789 46.56638336181641 57.84627151489258 46.50352096557617 53.50011444091797 L 113.4967041015625 53.50011444091797 C 113.433837890625 57.84625244140625 112.5502395629883 62.06214904785156 110.8678665161133 66.03966522216797 C 109.1806030273438 70.02876281738281 106.7650375366211 73.61147308349609 103.6882553100586 76.68826293945312 C 100.611457824707 79.76504516601562 97.02875518798828 82.18061065673828 93.03966522216797 83.86787414550781 C 88.90992736816406 85.61463165283203 84.52277374267578 86.50031280517578 80.00009918212891 86.50031280517578 Z" stroke="none"/>
          <path d="M 80.00009918212891 86.00031280517578 C 84.45549774169922 86.00031280517578 88.77710723876953 85.12792205810547 92.84489440917969 83.40737152099609 C 96.77437591552734 81.74532318115234 100.3036651611328 79.36573028564453 103.3346939086914 76.33470153808594 C 106.3657302856445 73.30367279052734 108.7453079223633 69.77439117431641 110.4073638916016 65.84488677978516 C 111.9988555908203 62.08222579956055 112.8646697998047 58.10208892822266 112.9856109619141 54.00011444091797 L 47.01461410522461 54.00011444091797 C 47.13555145263672 58.10210418701172 48.00135803222656 62.08223724365234 49.59284591674805 65.84489440917969 C 51.25490570068359 69.77440643310547 53.63448715209961 73.30368041992188 56.6655158996582 76.33470153808594 C 59.69654846191406 79.36572265625 63.22582626342773 81.74531555175781 67.15532684326172 83.40737152099609 C 71.22310638427734 85.12792205810547 75.54470825195312 86.00031280517578 80.00009918212891 86.00031280517578 M 80.00009918212891 87.00031280517578 C 75.41014862060547 87.00031280517578 70.95747375488281 86.10134124755859 66.76576995849609 84.32837677001953 C 62.71707534790039 82.61590576171875 59.08095550537109 80.16435241699219 55.95840835571289 77.04181671142578 C 52.83587646484375 73.91928100585938 50.38431549072266 70.28315734863281 48.67184829711914 66.23444366455078 C 46.89887619018555 62.04273223876953 45.99990844726562 57.59005355834961 45.99990844726562 53.00011444091797 L 114.0003204345703 53.00011444091797 C 114.0003204345703 57.59120178222656 113.1009979248047 62.04353332519531 111.328369140625 66.23444366455078 C 109.6158981323242 70.28314208984375 107.1643600463867 73.91925048828125 104.0418090820312 77.04181671142578 C 100.9192581176758 80.16435241699219 97.28314971923828 82.61590576171875 93.23444366455078 84.32837677001953 C 89.04273986816406 86.10134124755859 84.59005737304688 87.00031280517578 80.00009918212891 87.00031280517578 Z" stroke="none" fill="#eea5d3"/>
        </g>
      </g>
    </g>
    <text id="My_Beauty" data-name="My
Beauty" transform="translate(2835 1039)" fill="#eea5d3" font-size="15" font-family="ArialUnicodeMS, Arial Unicode MS"><tspan x="-9.998" y="0">My</tspan><tspan fill="#eb7ac1"><tspan x="-23.35" y="20">Beauty</tspan></tspan></text>
  </g>
</svg>
